<svg width="229" height="20" viewBox="0 0 229 20" fill="none" xmlns="http://www.w3.org/2000/svg">
<path d="M7.408 19L3.28 5.56H3.184C3.2 5.88 3.224 6.36 3.256 7C3.288 7.64 3.32 8.328 3.352 9.064C3.384 9.784 3.4 10.44 3.4 11.032V19H0.16V1.864H5.104L9.16 14.968H9.232L13.528 1.864H18.472V19H15.088V10.888C15.088 10.344 15.096 9.72 15.112 9.016C15.144 8.312 15.168 7.648 15.184 7.024C15.216 6.384 15.24 5.904 15.256 5.584H15.16L10.744 19H7.408ZM27.8886 5.632C29.6486 5.632 30.9926 6.016 31.9206 6.784C32.8646 7.536 33.3366 8.696 33.3366 10.264V19H30.8406L30.1446 17.224H30.0486C29.6806 17.688 29.2966 18.072 28.8966 18.376C28.5126 18.68 28.0646 18.896 27.5526 19.024C27.0566 19.168 26.4406 19.24 25.7046 19.24C24.9366 19.24 24.2406 19.096 23.6166 18.808C23.0086 18.504 22.5286 18.048 22.1766 17.44C21.8246 16.816 21.6486 16.032 21.6486 15.088C21.6486 13.696 22.1366 12.672 23.1126 12.016C24.0886 11.344 25.5526 10.976 27.5046 10.912L29.7846 10.84V10.264C29.7846 9.576 29.6006 9.072 29.2326 8.752C28.8806 8.432 28.3846 8.272 27.7446 8.272C27.1046 8.272 26.4806 8.368 25.8726 8.56C25.2646 8.736 24.6566 8.96 24.0486 9.232L22.8726 6.808C23.5766 6.44 24.3526 6.152 25.2006 5.944C26.0646 5.736 26.9606 5.632 27.8886 5.632ZM28.3926 12.976C27.2406 13.008 26.4406 13.216 25.9926 13.6C25.5446 13.984 25.3206 14.488 25.3206 15.112C25.3206 15.656 25.4806 16.048 25.8006 16.288C26.1206 16.512 26.5366 16.624 27.0486 16.624C27.8166 16.624 28.4646 16.4 28.9926 15.952C29.5206 15.488 29.7846 14.84 29.7846 14.008V12.928L28.3926 12.976ZM46.045 5.896V8.584H40.573V19H36.997V5.896H46.045ZM51.9139 11.08C51.9139 11.352 51.8979 11.688 51.8659 12.088C51.8499 12.488 51.8259 12.896 51.7939 13.312C51.7779 13.728 51.7539 14.096 51.7219 14.416C51.6899 14.736 51.6659 14.96 51.6499 15.088L57.6979 5.896H61.9939V19H58.5379V13.768C58.5379 13.336 58.5539 12.864 58.5859 12.352C58.6179 11.824 58.6499 11.336 58.6819 10.888C58.7299 10.424 58.7619 10.072 58.7779 9.832L52.7539 19H48.4579V5.896H51.9139V11.08ZM68.8754 10.696C68.8754 11.256 69.0114 11.68 69.2834 11.968C69.5714 12.256 69.9634 12.4 70.4594 12.4C71.1474 12.4 71.7874 12.328 72.3794 12.184C72.9714 12.024 73.5634 11.816 74.1554 11.56V5.896H77.7314V19H74.1554V13.792C73.5954 14.096 72.9554 14.376 72.2354 14.632C71.5154 14.872 70.6994 14.992 69.7874 14.992C68.4274 14.992 67.3394 14.64 66.5234 13.936C65.7074 13.232 65.2994 12.176 65.2994 10.768V5.896H68.8754V10.696ZM86.8814 5.656C88.0974 5.656 89.1374 5.888 90.0014 6.352C90.8814 6.816 91.5614 7.488 92.0414 8.368C92.5214 9.248 92.7614 10.328 92.7614 11.608V13.336H84.3134C84.3454 14.344 84.6414 15.136 85.2014 15.712C85.7774 16.288 86.5694 16.576 87.5774 16.576C88.4254 16.576 89.1934 16.496 89.8814 16.336C90.5694 16.16 91.2814 15.896 92.0174 15.544V18.304C91.3774 18.624 90.6974 18.856 89.9774 19C89.2734 19.16 88.4174 19.24 87.4094 19.24C86.0974 19.24 84.9374 19 83.9294 18.52C82.9214 18.024 82.1294 17.28 81.5534 16.288C80.9774 15.296 80.6894 14.048 80.6894 12.544C80.6894 11.008 80.9454 9.736 81.4574 8.728C81.9854 7.704 82.7134 6.936 83.6414 6.424C84.5694 5.912 85.6494 5.656 86.8814 5.656ZM86.9054 8.2C86.2174 8.2 85.6414 8.424 85.1774 8.872C84.7294 9.32 84.4654 10.016 84.3854 10.96H89.4014C89.4014 10.432 89.3054 9.96 89.1134 9.544C88.9374 9.128 88.6654 8.8 88.2974 8.56C87.9294 8.32 87.4654 8.2 86.9054 8.2ZM100.989 19.24C99.6931 19.24 98.5891 19.008 97.6771 18.544C96.7651 18.064 96.0691 17.328 95.5891 16.336C95.1091 15.344 94.8691 14.072 94.8691 12.52C94.8691 10.92 95.1411 9.616 95.6851 8.608C96.2291 7.6 96.9811 6.856 97.9411 6.376C98.9171 5.896 100.037 5.656 101.301 5.656C102.197 5.656 102.973 5.744 103.629 5.92C104.301 6.096 104.885 6.304 105.381 6.544L104.325 9.304C103.765 9.08 103.237 8.896 102.741 8.752C102.261 8.608 101.781 8.536 101.301 8.536C100.677 8.536 100.157 8.688 99.7411 8.992C99.3251 9.28 99.0131 9.72 98.8051 10.312C98.6131 10.888 98.5171 11.616 98.5171 12.496C98.5171 13.36 98.6211 14.08 98.8291 14.656C99.0531 15.216 99.3731 15.64 99.7891 15.928C100.205 16.2 100.709 16.336 101.301 16.336C102.053 16.336 102.717 16.24 103.293 16.048C103.869 15.84 104.429 15.56 104.973 15.208V18.256C104.429 18.608 103.853 18.856 103.245 19C102.653 19.16 101.901 19.24 100.989 19.24ZM116.581 5.896H120.517L115.333 12.184L120.973 19H116.917L111.565 12.352V19H107.989V5.896H111.565V12.256L116.581 5.896ZM128.225 5.632C129.985 5.632 131.329 6.016 132.257 6.784C133.201 7.536 133.673 8.696 133.673 10.264V19H131.177L130.481 17.224H130.385C130.017 17.688 129.633 18.072 129.233 18.376C128.849 18.68 128.401 18.896 127.889 19.024C127.393 19.168 126.777 19.24 126.041 19.24C125.273 19.24 124.577 19.096 123.953 18.808C123.345 18.504 122.865 18.048 122.513 17.44C122.161 16.816 121.985 16.032 121.985 15.088C121.985 13.696 122.473 12.672 123.449 12.016C124.425 11.344 125.889 10.976 127.841 10.912L130.121 10.84V10.264C130.121 9.576 129.937 9.072 129.569 8.752C129.217 8.432 128.721 8.272 128.081 8.272C127.441 8.272 126.817 8.368 126.209 8.56C125.601 8.736 124.993 8.96 124.385 9.232L123.209 6.808C123.913 6.44 124.689 6.152 125.537 5.944C126.401 5.736 127.297 5.632 128.225 5.632ZM128.729 12.976C127.577 13.008 126.777 13.216 126.329 13.6C125.881 13.984 125.657 14.488 125.657 15.112C125.657 15.656 125.817 16.048 126.137 16.288C126.457 16.512 126.873 16.624 127.385 16.624C128.153 16.624 128.801 16.4 129.329 15.952C129.857 15.488 130.121 14.84 130.121 14.008V12.928L128.729 12.976ZM139.325 19H135.461L138.989 13.816C138.541 13.624 138.117 13.368 137.717 13.048C137.333 12.712 137.021 12.288 136.781 11.776C136.541 11.264 136.421 10.656 136.421 9.952C136.421 8.64 136.917 7.64 137.909 6.952C138.901 6.248 140.173 5.896 141.725 5.896H147.821V19H144.245V14.128H142.277L139.325 19ZM139.925 9.976C139.925 10.52 140.141 10.952 140.573 11.272C141.005 11.576 141.565 11.728 142.253 11.728H144.245V8.416H141.797C141.157 8.416 140.685 8.576 140.381 8.896C140.077 9.2 139.925 9.56 139.925 9.976ZM156.486 11.152C156.486 9.216 156.726 7.576 157.206 6.232C157.686 4.872 158.446 3.792 159.486 2.992C160.526 2.176 161.886 1.624 163.566 1.336C164.414 1.192 165.27 1.072 166.134 0.975999C167.014 0.863999 167.918 0.751999 168.846 0.639999L169.254 3.76C168.854 3.808 168.414 3.864 167.934 3.928C167.454 3.976 166.966 4.032 166.47 4.096C165.99 4.144 165.526 4.2 165.078 4.264C164.63 4.328 164.222 4.384 163.854 4.432C163.262 4.528 162.742 4.664 162.294 4.84C161.846 5 161.47 5.232 161.166 5.536C160.862 5.84 160.622 6.256 160.446 6.784C160.286 7.296 160.182 7.96 160.134 8.776H160.302C160.494 8.472 160.758 8.168 161.094 7.864C161.446 7.56 161.878 7.304 162.39 7.096C162.902 6.888 163.486 6.784 164.142 6.784C165.182 6.784 166.086 7 166.854 7.432C167.622 7.864 168.214 8.504 168.63 9.352C169.046 10.2 169.254 11.256 169.254 12.52C169.254 14.008 168.982 15.248 168.438 16.24C167.894 17.232 167.142 17.984 166.182 18.496C165.222 18.992 164.11 19.24 162.846 19.24C161.886 19.24 161.014 19.064 160.23 18.712C159.446 18.36 158.774 17.84 158.214 17.152C157.654 16.464 157.222 15.616 156.918 14.608C156.63 13.6 156.486 12.448 156.486 11.152ZM163.062 16.336C163.574 16.336 164.014 16.224 164.382 16C164.766 15.776 165.062 15.408 165.27 14.896C165.494 14.384 165.606 13.696 165.606 12.832C165.606 11.792 165.43 10.968 165.078 10.36C164.742 9.736 164.15 9.424 163.302 9.424C162.79 9.424 162.31 9.552 161.862 9.808C161.43 10.048 161.062 10.328 160.758 10.648C160.454 10.952 160.246 11.216 160.134 11.44C160.134 12.064 160.182 12.672 160.278 13.264C160.374 13.84 160.534 14.36 160.758 14.824C160.982 15.288 161.278 15.656 161.646 15.928C162.03 16.2 162.502 16.336 163.062 16.336ZM175.664 11.08C175.664 11.352 175.648 11.688 175.616 12.088C175.6 12.488 175.576 12.896 175.544 13.312C175.528 13.728 175.504 14.096 175.472 14.416C175.44 14.736 175.416 14.96 175.4 15.088L181.448 5.896H185.744V19H182.288V13.768C182.288 13.336 182.304 12.864 182.336 12.352C182.368 11.824 182.4 11.336 182.432 10.888C182.48 10.424 182.512 10.072 182.528 9.832L176.504 19H172.208V5.896H175.664V11.08ZM200.329 8.584H196.033V19H192.457V8.584H188.161V5.896H200.329V8.584ZM214.363 9.328C214.363 10.032 214.139 10.632 213.691 11.128C213.259 11.624 212.611 11.944 211.747 12.088V12.184C212.659 12.296 213.387 12.608 213.931 13.12C214.491 13.632 214.771 14.288 214.771 15.088C214.771 15.648 214.659 16.168 214.435 16.648C214.227 17.128 213.891 17.544 213.427 17.896C212.963 18.248 212.363 18.52 211.627 18.712C210.907 18.904 210.027 19 208.987 19H202.747V5.896H208.987C210.011 5.896 210.923 6.008 211.723 6.232C212.539 6.44 213.179 6.792 213.643 7.288C214.123 7.784 214.363 8.464 214.363 9.328ZM211.075 14.896C211.075 14.384 210.875 14.016 210.475 13.792C210.075 13.552 209.475 13.432 208.675 13.432H206.323V16.528H208.747C209.419 16.528 209.971 16.408 210.403 16.168C210.851 15.912 211.075 15.488 211.075 14.896ZM210.739 9.616C210.739 9.2 210.579 8.896 210.259 8.704C209.939 8.512 209.467 8.416 208.843 8.416H206.323V11.008H208.435C209.187 11.008 209.755 10.904 210.139 10.696C210.539 10.472 210.739 10.112 210.739 9.616ZM223.217 5.632C224.977 5.632 226.321 6.016 227.249 6.784C228.193 7.536 228.665 8.696 228.665 10.264V19H226.169L225.473 17.224H225.377C225.009 17.688 224.625 18.072 224.225 18.376C223.841 18.68 223.393 18.896 222.881 19.024C222.385 19.168 221.769 19.24 221.033 19.24C220.265 19.24 219.569 19.096 218.945 18.808C218.337 18.504 217.857 18.048 217.505 17.44C217.153 16.816 216.977 16.032 216.977 15.088C216.977 13.696 217.465 12.672 218.441 12.016C219.417 11.344 220.881 10.976 222.833 10.912L225.113 10.84V10.264C225.113 9.576 224.929 9.072 224.561 8.752C224.209 8.432 223.713 8.272 223.073 8.272C222.433 8.272 221.809 8.368 221.201 8.56C220.593 8.736 219.985 8.96 219.377 9.232L218.201 6.808C218.905 6.44 219.681 6.152 220.529 5.944C221.393 5.736 222.289 5.632 223.217 5.632ZM223.721 12.976C222.569 13.008 221.769 13.216 221.321 13.6C220.873 13.984 220.649 14.488 220.649 15.112C220.649 15.656 220.809 16.048 221.129 16.288C221.449 16.512 221.865 16.624 222.377 16.624C223.145 16.624 223.793 16.4 224.321 15.952C224.849 15.488 225.113 14.84 225.113 14.008V12.928L223.721 12.976Z" fill="white"/>
</svg>
